<svg width="1090" height="1090" viewBox="0 0 1090 1090" fill="none" xmlns="http://www.w3.org/2000/svg">
<path d="M568.765 953.988C558.773 953.537 548.768 954.088 538.767 953.982C292.197 951.349 103.349 726.09 139.76 483.256C164.21 320.186 291.172 182.38 451.983 145.14C474.909 139.831 497.326 137.266 520.715 135.143C681.043 125.243 839.797 217.163 911.534 360.719C1036.37 610.519 876.237 913.722 600.812 949.934C590.13 951.339 579.353 951.949 568.765 953.988ZM526.306 164.937C414.357 175.896 327.107 212.773 252.925 303.169C161.316 414.798 140.224 567.677 198.224 699.178C260.782 841.014 409.424 929.296 563.527 923.678C612.215 918.551 656.27 910.225 700.891 889.877C865.6 814.766 956.968 630.097 912.996 453.434C878.252 313.848 765.582 203.425 624.706 173.536C599.722 168.235 552.149 162.191 526.306 164.937Z" fill="#F6BE35"/>
<path d="M551.883 209.096C544.562 209.197 534.627 210.566 528.685 205.554C518.653 197.09 526.964 184.362 541.41 183.821C583.267 184.159 567.892 210.278 551.883 209.096Z" fill="#F6BE35"/>
<path d="M467.679 219.085C458.798 216.702 449.399 208.151 456.612 198.468C461.205 192.303 470.784 191.267 477.869 190.206C489.951 188.786 502.423 196.513 495.776 208.37C491.452 216.082 480.227 215.493 472.612 217.481C471.359 218.259 469.118 218.64 467.679 219.085Z" fill="#F6BE35"/>
<path d="M595.034 203.231C596.779 196.502 599.501 192.005 606.743 190.206C643.394 189.557 645.874 216.34 626.353 219.085C612.656 216.693 599.95 218.679 595.034 203.231Z" fill="#F6BE35"/>
<path d="M387.165 222.605C393.462 215.535 403.852 210.561 413.183 209.096C422.681 206.914 432.43 215.854 427.804 225.595C425.186 231.106 408.515 237.858 402.205 240.961C399.632 241.477 397.118 241.155 394.526 240.961C386.334 236.622 385.515 231.448 387.165 222.605Z" fill="#F6BE35"/>
<path d="M695.771 243.201C691.269 243.818 668.867 233.768 666.411 229.578C661.689 221.52 667.401 213.111 674.484 209.096C696.124 210.831 720.854 231.778 695.771 243.201Z" fill="#F6BE35"/>
<path d="M549.091 858.136C358.193 862.356 210.2 691.114 234.494 502.897C253.98 351.94 386.911 231.574 540.372 232.48L542.545 232.374C606.724 229.773 673.194 252.124 725.247 289.111C876.837 396.825 903.674 620.211 776.234 756.307C714.478 822.255 637.861 855.128 549.091 858.136ZM535.472 262.359C451.23 268.627 385.603 297.971 329.033 363.634C239.606 467.438 242.258 623.795 329.876 727.456C386.081 793.952 466.721 829.9 554.052 827.897C636.803 821.747 705.278 790.866 760.719 726.684C859.232 612.641 845.147 430.707 730.849 332.572C674.993 284.614 608.978 261.225 535.472 262.359Z" fill="#F6BE35"/>
<path d="M339.445 278.474C322.995 283.744 312.948 257.715 347.728 243.2C353.755 242.624 359.887 243.807 363.011 249.713C369.145 261.303 347.366 274.386 339.445 278.474Z" fill="#F6BE35"/>
<path d="M755.653 276.589C739.289 279.515 713.514 250.119 738.47 243.2C754.779 243.845 780.75 269.031 755.653 276.589Z" fill="#F6BE35"/>
<path d="M806.117 324.851C788.403 323.645 766.387 293.236 792.111 287.373C808.062 286.785 828.851 317.153 806.117 324.851Z" fill="#F6BE35"/>
<path d="M285.925 328.301C256.732 329.223 275.846 297.235 293.413 289.98C320.603 288.965 302.298 322.595 285.925 328.301Z" fill="#F6BE35"/>
<path d="M847.79 380.754C835.47 381.514 810.846 350.18 835.102 341.054C851.549 340.468 870.284 376.687 847.79 380.754Z" fill="#F6BE35"/>
<path d="M227.966 377.232C230.625 368.502 239.138 349.943 248.887 347.481C276.797 349.286 252.869 385.828 243.428 388.959C234.6 389.516 230.246 385.702 227.966 377.232Z" fill="#F6BE35"/>
<path d="M635.586 664.57C589.622 720.529 507.015 728.495 450.508 683.682C353.176 606.494 373.167 403.28 505.198 376.564C511.546 375.28 518.087 374.748 524.52 374.057C590.794 370.615 654.868 419.039 662.404 485.96C645.948 506.253 637.016 488.525 631.593 472.112C607.291 398.553 515.535 373.392 459.76 428.365C401.999 485.294 401.188 598.911 458.366 656.587C501.388 699.987 568.554 697.856 611.36 655.34C630.501 636.326 635.541 623.631 635.554 598.626L635.586 569.839C617.5 569.558 599.371 569.822 581.281 569.839C560.582 569.829 536.89 577.818 531.29 556.338C535.789 538.262 556.336 543.811 572.534 543.804L659.307 543.815C666.954 543.821 685.266 541.491 691.31 547.267C696.143 551.885 696.935 561.19 692.161 566.13C686.068 572.436 670.711 569.954 662.404 569.839C661.921 603.63 662.804 637.429 662.076 671.225C661.868 680.935 663.066 691.084 661.606 700.71C659.501 714.582 639.983 715.361 636.341 702.081C634.322 694.715 635.556 673.226 635.586 664.57Z" fill="#F6BE35"/>
<path d="M857.187 418.886C858.517 412.734 860.547 409.901 866.464 407.068C888.57 406.238 894.974 441.54 879.557 447.311C862.752 449.257 860.477 431.547 857.187 418.886Z" fill="#F6BE35"/>
<path d="M198.878 447.311C200.501 436.185 203.684 416.269 215.833 411.797C241.73 412.474 226.819 452.025 213.705 456.642C206.446 458.029 201.754 453.628 198.878 447.311Z" fill="#F6BE35"/>
<path d="M895.412 518.885C877.535 524.476 867.558 486.18 884.909 476.279C889.802 475.913 896.364 475.677 899.203 480.678C904.172 489.427 908.15 512.198 895.412 518.885Z" fill="#F6BE35"/>
<path d="M191.298 485.961L196.045 483.651C223.857 482.745 210.292 525.012 202.146 528.253C196.377 529.426 192.772 528.53 187.958 525.352C182.556 515.703 185.761 494.727 191.298 485.961Z" fill="#F6BE35"/>
<path d="M889.383 593.248C869.324 584.22 878.89 554.097 889.383 549.634C896.07 549.495 899.822 550.496 904.004 556.338C905.589 567.413 907.616 590.064 893.705 593.248H889.383Z" fill="#F6BE35"/>
<path d="M202.146 602.168C184.661 605.905 183.94 570.284 186.778 564.168C188.408 560.656 192.711 559.424 196.045 558.151C202.814 557.885 206.796 559.569 208.849 566.396C212.387 578.17 217.048 598.043 202.146 602.168Z" fill="#F6BE35"/>
<path d="M871.72 624.348C874.27 622.742 876.703 621.82 879.556 620.969C887.503 620.592 891.381 626.226 893.705 633.096C890.911 644.101 889.896 660.501 877.271 664.57C854.22 665.23 865.133 635.705 871.72 624.348Z" fill="#F6BE35"/>
<path d="M208.128 671.979C201.447 660.842 191.126 634.807 210.544 630.51C224.278 631.985 240.481 669.357 217.755 674.588C213.722 674.856 211.566 673.933 208.128 671.979Z" fill="#F6BE35"/>
<path d="M845.232 692.553C846.698 691.67 848.241 690.925 849.769 690.152C878.627 687.454 858.759 726.241 847.79 731.838C837.838 733.918 833.116 729.067 830.868 719.703C833.471 710.243 840.331 701.064 845.232 692.553Z" fill="#F6BE35"/>
<path d="M252.416 739.532C238.584 743.008 215.997 707.529 238.227 699.7C252.165 699.265 258.909 717.377 262.84 728.467C260.857 733.845 257.909 737.346 252.416 739.532Z" fill="#F6BE35"/>
<path d="M806.117 790.797C778.937 797.889 787.324 765.435 809.799 752.934C817.241 752.006 828.493 757.39 826.22 766.269C824.737 772.062 811.122 787.918 806.117 790.797Z" fill="#F6BE35"/>
<path d="M298.82 796.795C282.371 800.366 258.043 767.587 278.979 759.846C295.153 758.757 319.43 789.029 298.82 796.795Z" fill="#F6BE35"/>
<path d="M733.603 827.897C736.003 816.33 749.356 804.891 759.476 800.76C789.455 800.388 769.079 833.167 748.818 838.447C740.669 839.12 736.012 835.591 733.603 827.897Z" fill="#F6BE35"/>
<path d="M353.432 846.556C337.6 843.336 306.644 818.184 334.667 807.798C352.21 809.403 380.203 835.008 353.432 846.556Z" fill="#F6BE35"/>
<path d="M686.315 873.98C676.695 875.892 667.246 865.968 671.428 856.418C674.682 848.984 690.263 843.955 697.527 841.207C707.842 840.89 717.388 848.397 711.407 859.54C707.363 867.083 694.132 871.478 686.315 873.98Z" fill="#F6BE35"/>
<path d="M421.18 878.071C403.746 881.906 369.577 855.982 397.855 846.556C403.439 846.166 420.544 852.551 425.556 855.473C435.25 861.124 431.752 876.077 421.18 878.071Z" fill="#F6BE35"/>
<path d="M601.408 883.756C605.956 870.329 618.809 870.243 631.038 867.413C636.205 867.794 641.392 870.707 642.807 876.068C647.332 893.203 626.724 894.214 614.869 896.527C606.539 896.67 603.687 891.113 601.408 883.756Z" fill="#F6BE35"/>
<path d="M490.668 898.8C484.23 898.183 469.982 896.397 464.544 893.661C453.219 887.963 455.926 872.176 467.679 869.441C473.859 869.49 488.433 872.567 494.103 875.153C505.151 880.191 501.018 895.84 490.668 898.8Z" fill="#F6BE35"/>
<path d="M563.527 903.444C516.365 906.613 530.369 879.431 540.372 878.071C546.25 877.718 559.852 876.965 565 879.272C576.039 884.218 574.16 899.575 563.527 903.444Z" fill="#F6BE35"/>
</svg>
